<svg width="24" height="24" viewBox="0 0 24 24" fill="none" xmlns="http://www.w3.org/2000/svg">
<path d="M12.3104 5.33024H10.9681C10.8453 5.33024 10.7448 5.4307 10.7448 5.55349V13.2363C10.7448 13.3088 10.7783 13.3758 10.8369 13.4177L15.4499 16.786C15.5504 16.8586 15.6899 16.8391 15.7625 16.7386L16.5606 15.6502C16.636 15.547 16.6136 15.4074 16.5132 15.3377L12.5336 12.4605V5.55349C12.5336 5.4307 12.4332 5.33024 12.3104 5.33024ZM18.4443 7.42884L22.8202 8.49768C22.9597 8.53117 23.0964 8.42512 23.0964 8.28279L23.1188 3.77582C23.1188 3.58884 22.9039 3.48279 22.7588 3.6L18.3606 7.03535C18.3274 7.06107 18.3021 7.09564 18.2876 7.1351C18.2731 7.17455 18.2701 7.21729 18.2789 7.2584C18.2876 7.2995 18.3078 7.33731 18.337 7.36746C18.3663 7.39761 18.4035 7.41889 18.4443 7.42884ZM23.1243 15.8316L21.542 15.2874C21.4868 15.2685 21.4265 15.272 21.3738 15.297C21.3211 15.322 21.2803 15.3667 21.2602 15.4214C21.2071 15.5637 21.1513 15.7033 21.0927 15.8428C20.596 17.0177 19.8843 18.0753 18.9746 18.9823C18.0749 19.8848 17.0087 20.6041 15.835 21.1005C14.6192 21.6145 13.3123 21.8784 11.9922 21.8763C10.6583 21.8763 9.3662 21.6167 8.14946 21.1005C6.9758 20.6041 5.90959 19.8848 5.00992 18.9823C4.10294 18.0753 3.39132 17.0177 2.89178 15.8428C2.38057 14.6263 2.11866 13.3196 2.12155 12C2.12155 10.666 2.38108 9.37117 2.89736 8.15442C3.39411 6.97954 4.10574 5.92186 5.0155 5.01489C5.91517 4.11243 6.98138 3.39309 8.15504 2.89675C9.3662 2.38047 10.6611 2.12093 11.995 2.12093C13.329 2.12093 14.6211 2.38047 15.8378 2.89675C17.0115 3.39309 18.0777 4.11243 18.9774 5.01489C19.262 5.30233 19.5299 5.60093 19.7755 5.91628L21.4443 4.61024C19.2481 1.80279 15.8295 -0.00278747 11.9895 3.23034e-06C5.30294 0.00279393 -0.0663569 5.43349 0.000619848 12.1228C0.0675966 18.6949 5.41178 24 11.995 24C17.1718 24 21.5811 20.7181 23.2611 16.1219C23.3029 16.0047 23.2415 15.8735 23.1243 15.8316Z" fill="#0063F5"/>
</svg>
