<svg width="62" height="62" viewBox="0 0 62 62" fill="none" xmlns="http://www.w3.org/2000/svg">
<path d="M61.4095 33.028C61.4095 32.4486 61.4095 31.8692 61.4095 30.7103C61.4095 30.1308 61.4095 30.1308 61.4095 29.5514C61.4095 28.972 61.4095 28.972 61.4095 28.3925V27.8131V27.2336C61.4095 26.6542 61.4095 26.6542 61.4095 26.0748C61.4095 26.0748 61.4095 26.0748 61.4095 26.6542V26.0748V25.4953V24.9159V24.3364C61.4095 24.3364 61.4095 24.3364 61.4095 24.9159C61.4095 24.9159 61.4095 24.9159 61.4095 25.4953V24.9159V24.3364V23.757C61.4095 23.1776 60.819 22.5981 60.819 22.0187C59.638 20.8598 59.0476 19.1215 57.8666 17.3832C57.2761 15.6449 56.0952 14.486 54.9142 12.7477C54.9142 12.7477 54.9142 12.7477 54.9142 12.1682L54.3237 11.5888C54.3237 11.5888 54.3237 11.0093 53.7333 11.0093C53.7333 11.0093 53.7333 10.4299 53.1428 10.4299C53.1428 9.85047 52.5523 9.85047 52.5523 9.85047C52.5523 9.85047 52.5523 9.85047 51.9618 9.27103C51.9618 9.27103 51.9618 9.27103 51.3714 8.69159L50.7809 8.11215C50.7809 8.11215 50.7809 8.11215 50.1904 7.53271C50.1904 7.53271 50.1904 7.53271 49.5999 6.95327C49.5999 6.95327 49.5999 6.95327 49.0095 6.37383C49.0095 6.37383 48.419 6.37383 48.419 5.79439C48.419 5.79439 47.8285 5.79439 47.8285 5.21495C47.8285 5.21495 47.238 5.21495 47.238 4.63551C48.419 5.79439 47.8285 5.21495 47.8285 5.21495C47.238 5.21495 46.6476 4.63551 46.6476 4.63551C46.6476 4.63551 46.0571 4.63551 46.0571 4.05607C46.0571 4.05607 45.4666 4.05607 45.4666 3.47664C45.4666 3.47664 46.0571 4.05607 46.6476 4.05607L47.238 4.63551C46.6476 4.63551 46.6476 4.05607 46.0571 4.05607C46.0571 4.05607 45.4666 4.05607 45.4666 3.47664C45.4666 3.47664 44.8761 3.47664 44.8761 2.8972C44.8761 2.8972 44.8761 2.8972 45.4666 2.8972C43.1047 2.8972 41.3333 2.31776 38.9714 1.73832C38.3809 1.73832 37.7904 1.73832 37.7904 1.73832C36.019 0.579439 34.2476 0.579439 33.0666 0C31.2952 0 29.5237 0 27.7523 0H27.1618H27.7523H28.3428C28.9333 0 29.5237 0 29.5237 0C30.1142 0 31.2952 0 31.8857 0H31.2952H30.7047H30.1142H29.5237H28.3428C28.9333 0 29.5237 0 30.1142 0H31.8857C32.4761 0 32.4761 0 33.0666 0H33.6571H34.2476C34.838 0 34.838 0 35.4285 0H36.6095H37.1999C36.6095 0 36.6095 0 36.019 0H35.4285C34.2476 0 33.6571 0.579439 34.2476 0.579439C34.2476 0.579439 34.838 0.579439 35.4285 1.15888C35.4285 1.15888 35.4285 1.15888 36.019 1.15888H36.6095C37.1999 1.15888 37.1999 1.15888 37.7904 1.15888H38.3809H37.7904C37.1999 1.15888 36.6095 1.15888 36.6095 1.15888C36.019 1.15888 36.019 1.15888 35.4285 1.15888H34.838C34.838 1.15888 34.838 1.15888 34.2476 1.15888C33.6571 1.15888 34.2476 1.15888 34.2476 1.73832H34.838C34.838 1.73832 35.4285 1.73832 36.019 1.73832C36.6095 1.73832 36.6095 1.73832 37.1999 1.73832C37.7904 1.73832 38.3809 1.73832 38.3809 1.73832C38.3809 4.63551 40.1523 5.21495 41.9237 5.79439C42.5142 5.79439 42.5142 6.37383 43.1047 6.37383C43.1047 6.37383 43.1047 6.37383 42.5142 6.37383C41.3333 5.21495 40.1523 4.63551 38.9714 4.63551C38.9714 4.63551 38.9714 4.63551 38.3809 4.63551C38.3809 4.63551 38.3809 4.63551 37.7904 4.63551C37.7904 4.63551 37.7904 4.63551 38.3809 4.63551C38.3809 4.63551 38.3809 4.63551 38.9714 4.63551C39.5618 4.63551 40.1523 5.21495 40.7428 5.21495C43.1047 5.79439 44.8761 6.95327 46.0571 7.53271C46.0571 7.53271 45.4666 7.53271 45.4666 6.95327C45.4666 6.95327 44.8761 6.95327 44.8761 6.37383H44.2857H43.6952C43.6952 6.37383 43.1047 6.37383 43.1047 5.79439C42.5142 5.79439 42.5142 5.79439 42.5142 5.21495H41.9237C41.3333 5.79439 41.3333 5.79439 41.3333 5.79439C41.3333 5.79439 41.3333 5.79439 40.7428 5.79439C40.7428 5.79439 40.7428 5.79439 40.1523 5.79439H39.5618C39.5618 5.79439 39.5618 5.79439 38.9714 5.79439H38.3809H37.7904H37.1999C37.1999 5.79439 37.1999 5.79439 36.6095 5.79439H36.019H35.4285C35.4285 5.79439 34.838 5.79439 34.2476 5.79439C34.2476 5.79439 34.2476 5.79439 34.838 5.79439C34.838 5.79439 34.838 5.79439 34.2476 5.79439C34.2476 5.79439 34.2476 5.79439 33.0666 5.21495H32.4761C32.4761 5.21495 32.4761 5.21495 31.8857 5.21495C31.8857 5.21495 31.8857 5.21495 32.4761 5.21495C32.4761 5.21495 32.4761 5.21495 33.0666 5.21495C33.0666 5.21495 33.0666 5.21495 33.6571 5.79439C33.6571 5.79439 33.6571 5.79439 34.2476 5.79439C34.2476 5.79439 34.838 5.79439 35.4285 5.79439C35.4285 5.79439 35.4285 5.79439 36.019 5.79439C36.019 5.79439 36.019 5.79439 36.6095 5.79439C36.6095 5.79439 37.1999 5.79439 37.7904 5.79439C37.7904 5.79439 37.7904 5.79439 38.3809 5.79439C38.9714 5.79439 38.9714 5.79439 38.9714 6.37383H38.3809C37.7904 6.37383 37.7904 6.37383 38.3809 6.37383C37.7904 6.37383 37.7904 6.37383 37.7904 6.95327H37.1999C36.6095 6.95327 36.6095 6.95327 36.019 6.95327C36.019 7.53271 35.4285 7.53271 35.4285 7.53271H34.838C33.0666 6.95327 31.2952 6.37383 30.1142 6.37383H30.7047C30.7047 6.37383 30.7047 6.37383 31.2952 6.37383C31.2952 6.37383 31.2952 6.37383 31.8857 6.37383H32.4761H33.0666C33.0666 6.37383 33.0666 6.37383 33.6571 6.37383C33.6571 6.37383 33.6571 6.37383 34.2476 6.37383H34.838H35.4285H36.019C34.2476 7.53271 32.4761 7.53271 31.2952 6.95327C30.7047 6.95327 30.7047 6.95327 30.1142 6.95327C29.5237 6.95327 29.5237 6.95327 28.9333 6.95327C28.3428 6.95327 28.3428 6.95327 27.7523 6.95327C27.1618 6.95327 27.1618 6.95327 26.5714 6.95327L27.1618 6.37383C25.9809 6.37383 24.2095 6.95327 23.0285 7.53271H22.438H21.8476C21.8476 7.53271 21.8476 7.53271 21.2571 7.53271C21.2571 7.53271 21.2571 7.53271 20.6666 7.53271C21.2571 7.53271 21.8476 6.95327 22.438 6.95327C23.619 6.95327 24.7999 6.95327 26.5714 6.37383H27.1618C27.7523 6.37383 27.7523 6.37383 28.3428 6.37383C28.9333 6.37383 28.9333 6.37383 29.5237 6.37383H28.9333H28.3428H28.9333C28.9333 6.37383 28.9333 6.37383 29.5237 5.79439C28.9333 5.79439 29.5237 5.79439 30.7047 5.79439H31.2952C31.2952 5.79439 31.2952 5.79439 30.7047 5.79439H30.1142H29.5237C28.9333 5.79439 28.9333 5.79439 28.3428 5.79439H27.1618C26.5714 5.79439 26.5714 5.79439 25.9809 5.79439H25.3904H24.7999H24.2095H23.619C23.619 5.79439 23.619 5.79439 24.2095 5.79439C24.7999 5.79439 26.5714 5.79439 28.3428 5.21495V4.63551V4.05607C26.5714 4.63551 24.7999 5.21495 23.0285 5.79439C23.0285 5.79439 23.619 5.79439 23.0285 5.79439H22.438C20.6666 6.37383 18.8952 6.95327 17.1237 8.11215H16.5333L17.1237 7.53271L17.7142 6.95327C17.7142 6.95327 18.3047 6.95327 18.3047 6.37383L18.8952 5.79439H19.4857C20.0761 5.79439 20.6666 5.21495 21.2571 5.21495C23.619 4.05607 25.9809 3.47664 28.3428 3.47664H28.9333C28.9333 3.47664 28.9333 3.47664 29.5237 3.47664H30.1142C30.7047 3.47664 30.7047 3.47664 30.7047 3.47664H30.1142H29.5237C29.5237 3.47664 28.9333 3.47664 28.3428 3.47664H27.7523C27.7523 3.47664 27.7523 3.47664 27.1618 3.47664H26.5714H25.9809H25.3904C22.438 3.47664 21.2571 4.05607 20.0761 4.63551C20.0761 4.63551 19.4857 4.63551 19.4857 5.21495C19.4857 5.21495 18.8952 5.21495 18.8952 5.79439C18.3047 5.21495 18.3047 5.21495 17.7142 5.79439H17.1237C17.1237 5.79439 17.1237 5.79439 16.5333 5.79439H15.9428C15.3523 5.79439 15.3523 5.79439 14.7618 6.37383C14.1714 6.37383 14.1714 6.95327 13.5809 6.95327C12.9904 6.95327 12.9904 7.53271 12.3999 7.53271C12.3999 7.53271 11.8095 7.53271 11.8095 8.11215C11.8095 8.11215 11.219 8.11215 11.219 8.69159C11.8095 8.69159 11.219 9.27103 11.219 9.27103C11.219 9.27103 10.6285 9.27103 10.6285 9.85047H11.219C10.6285 9.85047 10.6285 10.4299 10.038 10.4299V11.0093V11.5888L8.85708 12.1682L8.2666 12.7477C8.2666 12.7477 8.2666 12.7477 7.67613 13.3271C7.67613 13.3271 7.67613 13.9065 7.08565 13.9065C7.08565 13.9065 7.08565 14.486 6.49517 14.486C6.49517 14.486 6.49517 14.486 6.49517 15.0654V15.6449V16.2243V16.8037C5.31422 17.9626 4.13327 19.7009 3.54279 20.8598C3.54279 20.8598 3.54279 20.2804 4.13327 20.2804L4.72375 19.7009C4.72375 19.7009 4.72375 19.7009 4.72375 20.2804C4.72375 20.8598 4.13327 21.4393 4.13327 22.5981V23.1776V23.757V24.3364V23.757V23.1776V22.5981V22.0187V21.4393V20.8598C4.13327 18.5421 4.72375 17.3832 5.31422 15.6449L5.9047 15.0654C5.9047 15.0654 5.9047 14.486 6.49517 14.486V13.9065C7.08565 13.3271 7.67613 12.7477 8.2666 12.1682C8.2666 12.1682 8.2666 12.1682 8.85708 11.5888C9.44756 10.4299 10.6285 9.27103 11.8095 8.11215C11.219 8.11215 11.219 8.69159 10.6285 8.69159C10.6285 8.69159 10.6285 8.69159 10.038 9.27103C8.2666 11.0093 7.08565 12.1682 6.49517 13.3271V12.7477C5.31422 14.486 4.13327 16.2243 3.54279 18.5421C3.54279 19.1215 3.54279 19.1215 2.95232 19.7009V20.2804V20.8598C2.36184 22.5981 1.77136 23.1776 1.77136 23.757C1.77136 24.3364 1.77136 24.3364 1.77136 24.9159C1.77136 25.4953 1.77136 25.4953 1.77136 26.0748C1.77136 26.6542 1.77136 26.6542 1.77136 27.2336C1.77136 27.8131 1.77136 27.8131 1.77136 28.3925V28.972V29.5514C1.77136 30.1308 1.77136 30.1308 1.77136 30.7103C1.77136 31.2897 1.77136 31.2897 1.77136 31.8692C1.77136 31.8692 1.77136 31.8692 1.77136 32.4486V33.028V33.6075C1.77136 33.028 1.77136 33.028 1.77136 32.4486V31.8692C1.77136 31.2897 1.77136 30.1308 1.77136 29.5514C1.77136 27.8131 2.36184 26.6542 2.95232 24.9159C3.54279 23.1776 3.54279 21.4393 4.72375 19.7009C2.36184 20.8598 1.77136 22.5981 1.18089 24.9159C0.590412 28.3925 0.590412 31.2897 1.18089 34.7664V35.3458C0.590412 34.1869 -6.38962e-05 32.4486 -6.38962e-05 30.7103C-6.38962e-05 28.972 -6.38366e-05 27.2336 0.590412 25.4953C1.77136 21.4393 2.95232 17.3832 4.72375 13.9065L4.13327 14.486C4.13327 14.486 4.13327 14.486 4.13327 15.0654C4.13327 15.0654 4.13327 15.0654 4.13327 15.6449C4.13327 16.2243 3.54279 16.2243 3.54279 16.8037V17.3832C2.36184 17.9626 2.36184 19.1215 1.77136 19.7009C1.77136 20.2804 1.77136 20.2804 1.18089 20.8598C1.18089 21.4393 1.18089 21.4393 0.590412 22.0187C-1.18102 27.8131 -1.18102 33.6075 0.590412 38.243V38.8224C0.590412 39.4019 0.590412 39.9813 1.18089 41.1402C1.18089 41.7196 1.18089 41.7196 1.18089 42.2991V42.8785V43.4579C1.18089 44.0374 1.77136 44.6168 1.77136 44.6168C1.77136 45.1963 2.36184 45.1963 2.36184 45.7757C2.36184 45.1963 1.77136 45.1963 1.77136 44.6168V44.0374V43.4579V42.8785V42.2991V41.7196C1.77136 42.2991 1.77136 42.2991 2.36184 42.8785C2.36184 43.4579 2.36184 43.4579 2.95232 44.0374L3.54279 45.1963L2.95232 46.3551V46.9346C2.95232 46.9346 2.95232 47.514 3.54279 47.514C3.54279 47.514 3.54279 48.0935 4.13327 48.0935C4.13327 48.0935 4.13327 48.6729 4.72375 48.6729C4.72375 48.6729 4.72375 49.2523 5.31422 49.2523L5.9047 49.8318C5.31422 50.4112 5.9047 50.9907 6.49517 51.5701C7.08565 52.729 8.2666 53.3084 9.44756 54.4673L8.85708 53.8878L7.67613 53.3084C7.67613 52.729 7.08565 52.1495 6.49517 52.1495V52.729C8.2666 53.8878 10.038 55.6262 11.8095 56.785L12.3999 57.3645L12.9904 57.9439C12.9904 57.9439 12.9904 57.9439 12.3999 57.3645L12.9904 57.9439L13.5809 58.5234C14.1714 58.5234 14.7618 59.1028 15.3523 59.1028C17.1237 59.6822 18.8952 60.2617 20.6666 60.8411C23.619 61.4206 27.1618 61.4206 29.5237 61.4206C30.1142 61.4206 30.7047 61.4206 31.2952 60.8411C31.8857 60.8411 31.8857 60.8411 32.4761 60.8411C33.0666 60.8411 33.0666 60.8411 33.6571 60.8411H34.2476C34.2476 60.8411 34.2476 60.8411 34.838 60.8411C37.1999 60.2617 39.5618 59.6822 41.9237 58.5234H42.5142H43.1047C43.6952 58.5234 43.6952 58.5234 44.2857 57.9439C46.6476 56.785 47.238 56.2056 48.419 55.6262L49.0095 55.0467L49.5999 54.4673C49.5999 54.4673 49.5999 54.4673 50.1904 54.4673C50.1904 54.4673 50.1904 54.4673 50.7809 53.8878L51.3714 53.3084C51.9618 53.3084 52.5523 52.729 53.1428 52.1495C53.1428 52.1495 53.7333 52.1495 53.7333 51.5701L54.3237 50.9907C55.5047 49.2523 56.6857 48.0935 57.2761 46.3551C57.2761 46.3551 57.2761 46.9346 56.6857 46.9346C56.6857 46.9346 56.6857 47.514 56.0952 47.514C56.0952 47.514 56.0952 48.0935 55.5047 48.0935C55.5047 48.0935 55.5047 48.6729 54.9142 48.6729L55.5047 48.0935L56.0952 47.514C56.0952 47.514 56.0952 46.9346 56.6857 46.9346C56.6857 46.9346 56.6857 46.3551 57.2761 46.3551C57.8666 44.6168 58.4571 43.4579 59.0476 42.8785V42.2991C59.638 40.5607 60.2285 38.8224 60.819 36.5047C60.819 35.9252 60.819 35.3458 61.4095 34.7664C61.4095 34.1869 61.4095 33.6075 61.4095 33.028C61.9999 32.4486 61.9999 31.8692 61.9999 31.8692C61.4095 32.4486 61.4095 32.4486 61.4095 33.028ZM36.6095 5.21495C36.6095 5.21495 37.1999 5.21495 36.6095 5.21495C37.1999 5.21495 37.1999 5.21495 36.6095 5.21495ZM50.1904 11.5888C50.7809 11.5888 51.3714 12.1682 51.3714 12.7477L51.9618 13.3271L52.5523 13.9065C53.7333 15.6449 54.9142 17.3832 56.0952 19.1215C56.0952 19.1215 56.0952 18.5421 55.5047 18.5421L54.9142 17.9626C54.3237 16.2243 53.1428 14.486 51.9618 13.3271L51.3714 12.7477C50.7809 12.1682 50.1904 11.5888 50.1904 11.5888C49.5999 11.0093 49.0095 10.4299 48.419 9.85047C49.0095 10.4299 49.5999 11.0093 50.1904 11.5888ZM38.3809 9.27103C37.7904 9.27103 37.7904 9.27103 38.3809 9.27103V9.27103ZM9.44756 22.5981C8.85708 23.1776 8.85708 24.3364 8.2666 25.4953C7.67613 26.6542 7.67613 27.8131 7.67613 29.5514C7.67613 30.1308 7.67613 31.2897 7.67613 31.8692C7.67613 30.1308 7.67613 28.972 7.67613 27.2336C7.67613 24.9159 8.2666 23.1776 9.44756 21.4393C10.038 20.2804 10.6285 19.7009 11.219 19.1215L11.8095 18.5421L11.219 19.1215C10.6285 19.7009 10.038 20.8598 9.44756 21.4393C9.44756 22.0187 9.44756 22.0187 9.44756 22.5981ZM58.4571 20.2804C58.4571 20.8598 58.4571 20.8598 58.4571 20.8598C58.4571 21.4393 58.4571 21.4393 58.4571 22.0187C58.4571 21.4393 58.4571 20.8598 58.4571 20.2804C58.4571 20.8598 58.4571 20.2804 58.4571 20.2804C57.8666 19.1215 56.6856 17.3832 55.5047 15.6449C54.9142 13.9065 53.7333 12.1682 51.9618 11.0093C51.3714 10.4299 50.7809 9.27103 49.5999 8.69159C49.5999 8.69159 49.5999 8.69159 50.1904 9.27103C50.7809 9.27103 50.7809 9.85047 51.3714 9.85047C53.1428 11.5888 54.3237 12.7477 54.9142 14.486C56.0952 16.2243 57.2761 17.9626 58.4571 20.2804ZM24.2095 8.11215C24.7999 8.11215 24.7999 8.11215 24.2095 8.11215C24.7999 8.11215 24.7999 8.11215 24.2095 8.11215C24.7999 8.11215 24.7999 8.11215 24.7999 8.11215H25.3904C25.3904 8.11215 25.3904 8.11215 25.9809 7.53271C27.1618 7.53271 27.7523 7.53271 28.9333 7.53271H29.5237C30.1142 7.53271 30.1142 7.53271 30.7047 7.53271C31.2952 7.53271 31.2952 7.53271 31.8857 7.53271H32.4761C33.6571 7.53271 34.2476 7.53271 35.4285 8.11215C35.4285 8.11215 36.019 8.69159 37.1999 9.27103H36.6095H36.019H35.4285C36.6095 9.85047 36.6095 9.85047 36.6095 10.4299C36.6095 10.4299 36.6095 11.0093 36.019 11.0093H35.4285H34.838H34.2476H33.6571H34.2476C35.4285 11.5888 35.4285 11.5888 35.4285 11.5888C36.6095 12.1682 37.7904 12.1682 38.3809 12.7477C39.5618 13.9065 40.7428 14.486 41.3333 15.6449C41.3333 15.6449 41.3333 16.2243 41.9237 16.2243C41.9237 16.2243 41.9237 16.2243 42.5142 16.8037C43.1047 17.3832 43.6952 17.9626 44.8761 18.5421C45.4666 19.1215 46.0571 20.2804 47.238 20.8598C47.238 20.8598 47.238 20.8598 47.8285 21.4393C47.8285 21.4393 47.8285 22.0187 48.419 22.0187C49.0095 24.9159 49.5999 26.6542 50.1904 28.972C50.1904 30.1308 50.1904 31.2897 50.1904 32.4486C50.1904 33.6075 50.1904 34.7663 49.5999 35.9252C49.5999 37.6635 49.0095 39.9813 47.8285 41.7196C46.6476 43.4579 44.8761 45.1963 43.1047 46.9346C40.1523 49.2523 37.1999 50.4112 33.6571 50.9907V50.4112C33.6571 49.8318 33.6571 49.8318 33.0666 49.2523C33.0666 49.2523 33.0666 49.2523 32.4761 49.2523C32.4761 49.2523 32.4761 49.2523 31.8857 49.2523H31.2952V49.8318C31.2952 49.8318 31.2952 50.4112 30.7047 50.4112H30.1142C30.1142 50.4112 30.7047 50.4112 30.7047 50.9907C30.7047 50.9907 30.7047 50.9907 31.2952 51.5701V52.1495H30.7047H30.1142H29.5237C28.9333 52.1495 28.9333 52.1495 28.3428 52.1495H27.7523H27.1618C27.1618 52.1495 27.1618 52.1495 26.5714 52.1495H25.9809H25.3904H24.7999H24.2095L23.619 51.5701C23.619 51.5701 23.619 50.9907 23.0285 50.9907C23.0285 50.9907 23.0285 50.9907 23.0285 51.5701C23.0285 51.5701 23.0285 51.5701 23.619 52.1495L24.2095 52.729C24.2095 52.729 24.2095 52.729 23.619 52.729L23.0285 52.1495C23.0285 52.1495 22.438 52.1495 22.438 51.5701C22.438 51.5701 21.8476 51.5701 21.8476 50.9907L22.438 51.5701H21.8476H21.2571H20.6666C20.6666 51.5701 20.0761 51.5701 20.0761 50.9907L19.4857 50.4112C19.4857 49.8318 18.8952 49.8318 18.8952 49.2523C18.8952 49.2523 18.8952 48.6729 18.3047 48.6729C18.3047 48.6729 18.3047 48.6729 17.7142 48.0935C17.7142 45.7757 17.7142 45.1963 17.7142 45.1963C17.7142 45.7757 18.3047 46.9346 18.8952 47.514C18.8952 47.514 18.3047 47.514 18.3047 46.9346C17.7142 46.9346 17.7142 46.3551 17.1237 46.3551C16.5333 45.7757 15.9428 45.1963 15.3523 44.6168L14.7618 44.0374L14.1714 42.8785L13.5809 42.2991C13.5809 41.7196 12.9904 41.7196 12.9904 41.1402C12.9904 41.1402 12.9904 40.5607 12.3999 40.5607C12.3999 39.9813 11.8095 39.4019 11.8095 39.4019V38.8224V38.243V37.6635V37.0841V36.5047V35.9252V35.3458C10.038 33.028 9.44756 30.1308 10.038 27.8131C10.038 26.6542 10.038 25.4953 10.6285 24.3364C10.6285 23.757 10.6285 23.757 10.6285 23.1776C10.6285 22.5981 10.6285 22.5981 11.219 22.0187C11.219 21.4393 11.219 21.4393 11.8095 20.8598C11.8095 20.2804 11.8095 20.2804 12.3999 19.7009C12.3999 19.7009 12.3999 19.7009 12.3999 20.2804C12.3999 20.8598 11.8095 21.4393 11.8095 22.0187C11.8095 22.5981 11.219 23.1776 11.219 23.757C11.219 24.3364 10.6285 24.9159 10.6285 25.4953C10.6285 26.0748 10.6285 26.6542 10.038 27.2336C10.038 27.8131 10.038 28.3925 10.038 28.972V29.5514C10.038 29.5514 10.038 29.5514 10.038 30.1308V30.7103V31.2897C10.038 31.2897 10.038 31.2897 10.038 31.8692V32.4486C10.038 32.4486 10.038 32.4486 10.038 33.028V33.6075V34.1869C10.038 34.1869 10.038 34.1869 10.038 34.7664C10.038 37.0841 10.6285 38.8224 11.8095 41.1402C11.219 40.5607 11.8095 41.7196 12.3999 42.2991C12.3999 42.8785 12.9904 43.4579 13.5809 43.4579L14.1714 44.0374L14.7618 44.6168C14.7618 45.7757 15.3523 46.3551 15.9428 46.9346C15.3523 46.9346 14.7618 45.7757 14.1714 45.1963C14.7618 46.3551 15.9428 47.514 17.1237 48.0935H16.5333L15.9428 47.514C15.3523 46.9346 15.3523 46.9346 14.7618 46.3551L15.3523 46.9346C15.3523 46.9346 15.3523 46.9346 15.3523 47.514C14.7618 46.9346 14.7618 46.3551 14.1714 45.7757C13.5809 45.1963 12.3999 44.0374 11.8095 43.4579C11.8095 42.8785 11.8095 42.8785 11.219 42.2991C11.219 42.2991 11.219 42.2991 11.219 41.7196C11.219 41.7196 11.219 41.7196 11.219 41.1402C10.6285 41.1402 10.6285 40.5607 10.038 40.5607C10.6285 41.7196 11.8095 42.2991 12.3999 43.4579C12.3999 43.4579 12.3999 44.0374 12.9904 44.0374C12.9904 44.0374 12.9904 44.6168 13.5809 44.6168L14.1714 45.1963C12.9904 44.0374 11.8095 42.8785 11.219 41.1402C10.6285 39.9813 10.038 38.243 9.44756 36.5047C9.44756 35.9252 8.85708 35.3458 8.85708 34.7664V34.1869V33.6075C8.85708 32.4486 8.85708 31.8692 8.85708 31.2897C8.85708 29.5514 8.85708 28.3925 9.44756 26.6542C9.44756 24.3364 10.038 23.1776 10.6285 21.4393C11.8095 18.5421 13.5809 16.2243 15.9428 13.9065C15.9428 13.9065 16.5333 13.3271 15.9428 13.3271C15.9428 13.3271 15.9428 13.3271 16.5333 13.3271C16.5333 13.3271 16.5333 13.3271 17.1237 12.7477C17.1237 12.7477 17.7142 12.7477 17.7142 12.1682C17.7142 12.1682 18.3047 12.1682 18.3047 11.5888C18.3047 11.5888 18.8952 11.5888 18.8952 11.0093C18.8952 11.0093 18.8952 11.0093 18.3047 11.0093C17.7142 12.7477 16.5333 13.3271 15.9428 13.9065C15.9428 13.9065 15.3523 13.9065 15.3523 14.486C13.5809 16.2243 11.8095 18.5421 10.6285 20.8598C10.6285 20.2804 11.219 20.2804 11.219 19.7009C11.219 19.1215 11.8095 19.1215 11.8095 18.5421V17.9626C11.8095 18.5421 11.219 19.1215 10.6285 19.7009C11.219 19.1215 11.8095 17.9626 12.3999 17.3832L12.9904 16.8037L13.5809 16.2243L12.9904 16.8037C12.9904 16.8037 12.9904 16.8037 12.9904 16.2243C13.5809 15.6449 14.1714 14.486 14.7618 13.9065C15.3523 13.3271 15.3523 13.3271 15.9428 12.7477L16.5333 12.1682L17.1237 11.5888C17.1237 11.5888 17.1237 11.5888 16.5333 11.5888L15.9428 12.1682L15.3523 12.7477C15.3523 12.7477 15.3523 12.7477 14.7618 12.7477H14.1714L13.5809 13.3271C14.1714 14.486 14.1714 15.0654 13.5809 15.0654L12.9904 15.6449L12.3999 16.2243L11.8095 16.8037C11.8095 17.3832 11.8095 17.3832 11.8095 17.9626H11.219L11.8095 17.3832C11.8095 17.3832 11.8095 17.3832 11.8095 16.8037V16.2243L12.3999 15.6449L12.9904 15.0654C12.9904 15.0654 12.9904 15.0654 12.9904 14.486L13.5809 13.9065L14.1714 13.3271L14.7618 12.7477L15.3523 12.1682C15.3523 12.1682 15.3523 12.1682 15.9428 12.1682H16.5333L17.7142 11.5888L18.3047 11.0093H18.8952H19.4857L20.0761 10.4299L20.6666 9.85047H21.2571C21.2571 9.85047 21.2571 9.85047 21.8476 9.85047L22.438 9.27103C22.438 9.27103 23.0285 9.27103 23.0285 8.69159H23.619C24.2095 8.69159 24.2095 8.69159 24.2095 8.11215ZM1.18089 32.4486C1.18089 31.8692 1.18089 31.8692 1.18089 31.2897C1.18089 31.2897 1.18089 31.8692 1.18089 32.4486V33.028V33.6075C1.18089 33.028 1.18089 33.028 1.18089 32.4486C1.18089 33.028 1.18089 33.028 1.18089 33.028C1.18089 33.028 1.18089 33.028 1.18089 32.4486ZM33.0666 60.8411C32.4761 60.8411 32.4761 60.8411 31.8857 60.8411H31.2952C30.7047 60.8411 30.7047 60.8411 30.1142 60.8411H29.5237C25.3904 60.8411 21.8476 60.2617 17.7142 57.9439H16.5333C16.5333 57.9439 15.9428 57.9439 15.9428 57.3645C17.1237 57.9439 18.8952 58.5234 20.0761 58.5234H20.6666H21.2571H20.6666H20.0761C21.8476 59.1028 23.0285 59.6822 24.7999 59.6822C25.9809 59.6822 26.5714 59.6822 27.7523 59.6822C28.3428 59.6822 28.3428 59.6822 28.9333 59.6822C30.1142 60.8411 31.8857 60.8411 33.0666 60.8411Z" fill="#FF6D00"/>
</svg>
